<svg width="28" height="28" viewBox="0 0 28 28" fill="none" xmlns="http://www.w3.org/2000/svg">
<g clip-path="url(#clip0_101_368)">
<path d="M27.7188 9.31185C27.7188 6.3007 25.2765 3.85849 22.2654 3.85849C19.2542 3.85849 16.812 6.3007 16.812 9.31185C16.812 12.323 19.2542 14.7652 22.2654 14.7652C23.1671 14.7652 23.9991 14.529 24.7505 14.1426C23.7844 18.3936 19.9788 21.5819 15.438 21.5819C14.6865 21.5819 14.0746 22.1938 14.0746 22.9453C14.0746 23.6967 14.6865 24.3086 15.438 24.3086C22.2117 24.3086 27.7188 18.8016 27.7188 12.0278V9.31185Z" fill="black"/>
<path d="M14.0938 9.31185C14.0938 6.3007 11.6515 3.85849 8.64039 3.85849C5.62923 3.85849 3.18703 6.3007 3.18703 9.31185C3.18703 12.323 5.62923 14.7652 8.64039 14.7652C9.54213 14.7652 10.3741 14.529 11.1255 14.1426C10.1594 18.3936 6.35384 21.5819 1.81295 21.5819C1.06151 21.5819 0.449615 22.1938 0.449615 22.9453C0.449615 23.6967 1.06151 24.3086 1.81295 24.3086C8.58671 24.3086 14.0938 18.8016 14.0938 12.0278V9.31185Z" fill="black"/>
</g>
<defs>
<clipPath id="clip0_101_368">
<rect width="27.4815" height="27.4815" fill="white" transform="matrix(-1 0 0 -1 27.8281 27.8242)"/>
</clipPath>
</defs>
</svg>
