<svg width="30" height="31" viewBox="0 0 30 31" fill="none" xmlns="http://www.w3.org/2000/svg">
<path d="M11.405 22.4258C9.3164 22.4258 7.61719 24.125 7.61719 26.2136C7.61719 28.3022 9.3164 30.0015 11.405 30.0015C13.4936 30.0015 15.1929 28.3022 15.1929 26.2136C15.1929 24.125 13.4936 22.4258 11.405 22.4258ZM11.405 27.7287C10.5694 27.7287 9.88991 27.0492 9.88991 26.2136C9.88991 25.378 10.5694 24.6985 11.405 24.6985C12.2402 24.6985 12.9201 25.378 12.9201 26.2136C12.9201 27.0492 12.2406 27.7287 11.405 27.7287Z" fill="#272727"/>
<path d="M22.616 22.4258C20.5273 22.4258 18.8281 24.125 18.8281 26.2136C18.8281 28.3022 20.5273 30.0015 22.616 30.0015C24.7046 30.0015 26.4038 28.3022 26.4038 26.2136C26.4038 24.125 24.7046 22.4258 22.616 22.4258ZM22.616 27.7287C21.7804 27.7287 21.1008 27.0492 21.1008 26.2136C21.1008 25.378 21.7804 24.6985 22.616 24.6985C23.4516 24.6985 24.1311 25.378 24.1311 26.2136C24.1311 27.0492 23.4516 27.7287 22.616 27.7287Z" fill="#272727"/>
<path d="M29.1868 7.39885C28.9709 7.12762 28.6436 6.96971 28.2974 6.96971H8.40003L7.36709 1.74932C7.27656 1.29212 6.91598 0.936453 6.45725 0.852371L1.91186 0.0190544C1.29334 -0.0949686 0.702428 0.314541 0.589166 0.931941C0.475905 1.54934 0.884595 2.14137 1.50205 2.25463L5.2876 2.94855L8.6224 19.804C8.72769 20.3362 9.19474 20.7199 9.73714 20.7199H25.646C26.1751 20.7199 26.6339 20.3551 26.7532 19.8388L29.4046 8.36172C29.4826 8.02422 29.4024 7.66967 29.1868 7.39885ZM24.7422 18.4472H10.6704L8.84962 9.24279H26.8682L24.7422 18.4472Z" fill="#272727"/>
</svg>
