<svg width="110" height="110" viewBox="0 0 110 110" fill="none" xmlns="http://www.w3.org/2000/svg">
<circle cx="45" cy="45" r="5" fill="white" fill-opacity="0.88"/>
<circle cx="45" cy="25" r="5" fill="white" fill-opacity="0.88"/>
<circle cx="45" cy="5" r="5" fill="white" fill-opacity="0.88"/>
<circle cx="25" cy="45" r="5" fill="white" fill-opacity="0.88"/>
<circle cx="25" cy="25" r="5" fill="white" fill-opacity="0.88"/>
<circle cx="25" cy="5" r="5" fill="white" fill-opacity="0.88"/>
<circle cx="5" cy="45" r="5" fill="white" fill-opacity="0.88"/>
<circle cx="5" cy="25" r="5" fill="white" fill-opacity="0.88"/>
<circle cx="5" cy="5" r="5" fill="white" fill-opacity="0.88"/>
<circle cx="65" cy="45" r="5" fill="white" fill-opacity="0.88"/>
<circle cx="65" cy="25" r="5" fill="white" fill-opacity="0.88"/>
<circle cx="65" cy="5" r="5" fill="white" fill-opacity="0.88"/>
<circle cx="85" cy="45" r="5" fill="white" fill-opacity="0.88"/>
<circle cx="85" cy="25" r="5" fill="white" fill-opacity="0.88"/>
<circle cx="85" cy="5" r="5" fill="white" fill-opacity="0.88"/>
<circle cx="105" cy="45" r="5" fill="white" fill-opacity="0.88"/>
<circle cx="105" cy="25" r="5" fill="white" fill-opacity="0.88"/>
<circle cx="105" cy="5" r="5" fill="white" fill-opacity="0.88"/>
<circle cx="45" cy="65" r="5" fill="white" fill-opacity="0.88"/>
<circle cx="25" cy="65" r="5" fill="white" fill-opacity="0.88"/>
<circle cx="5" cy="65" r="5" fill="white" fill-opacity="0.88"/>
<circle cx="65" cy="65" r="5" fill="white" fill-opacity="0.88"/>
<circle cx="85" cy="65" r="5" fill="white" fill-opacity="0.88"/>
<circle cx="105" cy="65" r="5" fill="white" fill-opacity="0.88"/>
<circle cx="45" cy="85" r="5" fill="white" fill-opacity="0.88"/>
<circle cx="25" cy="85" r="5" fill="white" fill-opacity="0.88"/>
<circle cx="5" cy="85" r="5" fill="white" fill-opacity="0.88"/>
<circle cx="65" cy="85" r="5" fill="white" fill-opacity="0.88"/>
<circle cx="85" cy="85" r="5" fill="white" fill-opacity="0.88"/>
<circle cx="105" cy="85" r="5" fill="white" fill-opacity="0.88"/>
<circle cx="45" cy="105" r="5" fill="white" fill-opacity="0.88"/>
<circle cx="25" cy="105" r="5" fill="white" fill-opacity="0.88"/>
<circle cx="5" cy="105" r="5" fill="white" fill-opacity="0.88"/>
<circle cx="65" cy="105" r="5" fill="white" fill-opacity="0.88"/>
<circle cx="85" cy="105" r="5" fill="white" fill-opacity="0.88"/>
<circle cx="105" cy="105" r="5" fill="white" fill-opacity="0.88"/>
</svg>
